# xmcd CD database file
#
# Track frame offsets:
#	150
#	1799
#	17512
#	33286
#	56537
#	71190
#	82999
#	100400
#	116956
#	119829
#	136562
#	139175
#	157337
#	173199
#	242744
#
# Disc length: 3240 seconds
#
# Revision: 0
# Processed by: cddbd v1.5.1PL0 Copyright (c) Steve Scherf et al.
# Submitted via: CDex 1.51
#
DISCID=cc0ca60f
DTITLE=Upshot - Make It Happen
DYEAR=2004
DGENRE=Hip-Hop
TTITLE0=Intro
TTITLE1=Leviathan
TTITLE2=One Take
TTITLE3=Not Working
TTITLE4=About To Break
TTITLE5=Breathe
TTITLE6=Money
TTITLE7=Fire
TTITLE8=Latin Lude
TTITLE9=Lango
TTITLE10=LB Moves On
TTITLE11=Moving On
TTITLE12=Dangerous To Dream
TTITLE13=World
TTITLE14=Outro
EXTD=YEAR: 2004
EXTT0=
EXTT1=
EXTT2=
EXTT3=
EXTT4=
EXTT5=
EXTT6=
EXTT7=
EXTT8=
EXTT9=
EXTT10=
EXTT11=
EXTT12=
EXTT13=
EXTT14=
PLAYORDER=
